# xmcd
#
# Track frame offsets:
#	150
#	13440
#	27559
#	43891
#	60558
#	76026
#	88121
#	102979
#	118807
#	129408
#	144020
#	155221
#
# Disc length: 2209 seconds
#
# Revision: 0
# Processed by: cddbd v1.5.2PL0 Copyright (c) Steve Scherf et al.
# Submitted via: audiograbber 1.83.01
#
DISCID=a2089f0c
DTITLE=Concurso de marchinhas - As melhores marchinhas do carnaval 2009
DYEAR=2008
DGENRE=Marchinhas
TTITLE0=Zé Renato e Zélia Duncan part. Coralito - Hino do Carnaval Brasileiro
TTITLE1=Moyséis Marques - Amor não me segura
TTITLE2=Eduardo Dussek - Índio louro com pinta de negão
TTITLE3=Alfredo Del Penho e Mariana Bernardes - Das vilas
TTITLE4=Mauro Diniz e Cláudio Jorge - Volante com cachaça não combina
TTITLE5=João Cavalcanti - Maria do cabelo bom
TTITLE6=Nuno Neto e Pedro Holanda - Pijama de bolinha
TTITLE7=Marcos Lima e Luciane Menezes - Dona da noite
TTITLE8=Bianca Leão - O ET de Copacabana
TTITLE9=coro Alfredo Del Penho, Lali Maia, Pedro Paulo Malta e Bianca Leão - Ga
TTITLE9=rota piercingada
TTITLE10=coro infantil Didi Farág, Bia, Bebel, Paulinho e Miguel - Tribo Jovem
TTITLE11=Pedro Miranda - Linda Morena
EXTD=
EXTT0=
EXTT1=
EXTT2=
EXTT3=
EXTT4=
EXTT5=
EXTT6=
EXTT7=
EXTT8=
EXTT9=
EXTT10=
EXTT11=
PLAYORDER=
